<?xml version="1.0" standalone="no"?>
<!DOCTYPE svg PUBLIC "-//W3C//DTD SVG 20010904//EN"
 "http://www.w3.org/TR/2001/REC-SVG-20010904/DTD/svg10.dtd">
<svg version="1.0" xmlns="http://www.w3.org/2000/svg"
 width="1148.000000pt" height="1148.000000pt" viewBox="0 0 1148.000000 1148.000000"
 preserveAspectRatio="xMidYMid meet">
<metadata>
Created by potrace 1.11, written by Peter Selinger 2001-2013
</metadata>
<g transform="translate(0.000000,1148.000000) scale(0.100000,-0.100000)"
fill="#000000" stroke="none">
<path d="M4050 10693 c-522 -36 -941 -122 -1330 -274 -350 -136 -818 -409
-956 -557 -38 -40 -41 -48 -39 -91 2 -25 -1 -53 -6 -62 -12 -24 -76 -59 -94
-53 -11 5 -15 -1 -15 -22 0 -16 -3 -40 -7 -52 -9 -34 -23 -7 -23 44 0 61 -21
74 -62 37 -213 -188 -419 -433 -603 -713 -121 -184 -169 -267 -264 -458 -172
-344 -322 -766 -406 -1142 -14 -63 -30 -131 -35 -150 -12 -49 -58 -308 -70
-405 -80 -608 -91 -1171 -34 -1765 72 -763 262 -1439 578 -2055 207 -404 444
-733 746 -1035 546 -546 1224 -896 1984 -1025 145 -25 157 -25 699 -25 538 0
556 1 726 25 822 120 1555 434 2125 911 137 115 333 307 437 430 l70 82 -276
347 c-152 191 -295 359 -317 375 -96 70 -226 89 -349 50 -83 -25 -134 -58
-271 -176 -142 -121 -346 -275 -463 -348 -208 -131 -502 -262 -698 -311 -243
-61 -335 -70 -692 -70 -358 0 -457 12 -698 81 -471 135 -868 420 -1178 844
-336 459 -575 1151 -654 1890 -45 428 -49 1056 -9 1440 93 891 331 1566 732
2070 291 366 716 638 1182 755 218 56 401 76 677 76 429 0 678 -46 1035 -192
213 -87 438 -216 700 -400 143 -101 205 -132 294 -149 72 -14 184 -1 243 29
52 27 138 117 218 229 39 53 145 202 237 329 91 128 169 239 172 246 5 15
-230 237 -366 346 -71 57 -75 59 -83 38 -24 -64 -88 -77 -138 -28 -16 17 -39
33 -51 37 -21 6 -21 7 5 21 15 7 27 18 27 23 0 6 14 19 30 29 l31 18 -91 64
c-322 228 -736 428 -1104 534 -282 81 -582 132 -914 154 -138 10 -537 12 -652
4z m-707 -648 c69 -29 67 -68 -3 -100 -38 -17 -45 -18 -69 -4 -36 20 -42 80
-9 103 28 20 36 20 81 1z m1436 -33 c13 -25 -5 -52 -34 -52 -14 0 -25 5 -25
10 0 6 -7 10 -15 10 -8 0 -15 7 -15 16 0 8 4 13 9 10 5 -3 11 1 15 9 8 21 53
19 65 -3z m-1559 -102 c0 -5 -2 -10 -4 -10 -3 0 -8 5 -11 10 -3 6 -1 10 4 10
6 0 11 -4 11 -10z m3645 -190 c8 -12 -42 -12 -70 0 -16 7 -11 9 22 9 23 1 45
-3 48 -9z m-1920 -298 c-3 -8 -5 -18 -5 -23 0 -5 -6 -9 -14 -9 -18 0 -25 30
-14 60 9 24 10 25 24 5 8 -11 12 -26 9 -33z m755 -184 c0 -5 -12 -21 -27 -36
l-28 -27 -5 30 c-4 17 -5 33 -3 37 5 10 63 6 63 -4z m-4536 -761 c16 -12 16
-14 -9 -25 -27 -12 -65 -2 -65 18 0 20 49 25 74 7z m636 -1450 c20 -18 46 -44
59 -59 40 -46 1 -34 -48 15 -71 70 -80 108 -11 44z m-115 -17 c3 -5 25 -10 47
-10 31 0 46 -6 64 -26 25 -26 27 -34 24 -72 -1 -13 4 -29 10 -37 19 -23 2 -37
-24 -20 -17 12 -30 13 -49 6 -22 -9 -30 -6 -57 19 -25 24 -30 34 -25 60 4 20
0 41 -9 55 -14 21 -12 35 5 35 4 0 11 -4 14 -10z m-1046 -609 c20 -13 4 -31
-29 -31 -16 0 -32 5 -36 11 -7 12 13 29 36 29 8 0 21 -4 29 -9z m421 -421 c0
-23 -37 -47 -52 -32 -7 7 -3 17 11 31 26 26 41 27 41 1z m412 -859 c-3 -22
-12 -32 -33 -40 -34 -12 -43 -1 -28 31 10 22 47 48 60 42 3 -2 4 -17 1 -33z
m453 -653 c33 -15 32 -31 -5 -45 -24 -9 -36 -8 -60 4 l-30 15 22 18 c27 23 38
24 73 8z m-715 -145 c0 -27 -13 -41 -44 -49 -26 -6 -28 -5 -21 17 11 34 25 49
46 49 11 0 19 -7 19 -17z m475 -33 c3 -5 1 -10 -4 -10 -6 0 -11 5 -11 10 0 6
2 10 4 10 3 0 8 -4 11 -10z m-1182 -246 c-18 -28 -33 -31 -34 -6 -1 9 -3 29
-4 44 -3 21 1 27 18 30 30 4 42 -36 20 -68z m695 -183 c10 -22 10 -34 1 -55
-16 -34 -24 -33 -39 5 -10 24 -10 35 0 55 17 31 22 30 38 -5z m-692 -230 c29
-23 22 -31 -25 -31 -33 0 -72 15 -61 22 51 32 55 33 86 9z m1665 -358 c6 -16
5 -32 -2 -46 -17 -32 -18 -32 -34 -11 -16 22 -20 64 -5 64 6 0 10 7 10 16 0
21 19 7 31 -23z m-903 -299 c-3 -16 -56 -39 -67 -29 -2 3 8 19 24 35 29 31 50
28 43 -6z m-213 -113 c6 -29 -2 -81 -14 -81 -3 0 -14 14 -23 31 -17 29 -17 32
0 54 22 32 29 31 37 -4z m403 -474 c-4 -33 -52 -31 -56 2 -2 13 2 27 9 32 20
12 51 -9 47 -34z m4360 4 c34 -28 27 -41 -21 -41 -57 0 -64 9 -31 37 15 13 28
23 29 23 1 0 12 -8 23 -19z m-4212 -383 c10 -16 12 -78 2 -78 -4 0 -8 5 -8 10
0 6 -3 9 -7 9 -22 -4 -33 4 -52 37 -12 19 -21 36 -21 37 0 8 81 -7 86 -15z
m3122 -113 c10 -23 7 -35 -10 -35 -13 0 -48 39 -48 54 0 22 46 7 58 -19z
m-1378 -465 c6 -11 18 -20 28 -20 9 0 24 -4 31 -9 12 -8 8 -11 -15 -17 -16 -4
-37 -15 -47 -25 -24 -26 -73 -25 -87 1 -6 12 -21 20 -36 20 -29 0 -29 23 0 28
10 2 26 12 37 23 25 25 75 25 89 -1z"/>
<path d="M3360 9994 c0 -8 5 -12 10 -9 6 4 8 11 5 16 -9 14 -15 11 -15 -7z"/>
<path d="M9765 7846 c-87 -45 -135 -147 -109 -234 18 -58 47 -103 82 -126 l28
-19 18 -346 c10 -190 21 -349 25 -354 4 -4 32 -4 61 0 l54 8 -2 60 c-3 71 -19
389 -28 526 l-5 96 25 7 c13 3 41 21 60 40 20 18 36 31 37 27 0 -3 7 17 14 44
21 76 18 124 -11 184 -50 99 -153 136 -249 87z"/>
<path d="M9631 7614 c0 -11 3 -14 6 -6 3 7 2 16 -1 19 -3 4 -6 -2 -5 -13z"/>
<path d="M9631 7544 c0 -11 3 -14 6 -6 3 7 2 16 -1 19 -3 4 -6 -2 -5 -13z"/>
<path d="M9685 7430 c10 -11 20 -20 23 -20 3 0 -3 9 -13 20 -10 11 -20 20 -23
20 -3 0 3 -9 13 -20z"/>
<path d="M9954 7428 l-19 -23 23 19 c21 18 27 26 19 26 -2 0 -12 -10 -23 -22z"/>
<path d="M9753 7260 c0 -30 2 -43 4 -27 2 15 2 39 0 55 -2 15 -4 2 -4 -28z"/>
<path d="M9763 7075 c0 -27 2 -38 4 -22 2 15 2 37 0 50 -2 12 -4 0 -4 -28z"/>
<path d="M7994 7051 c-53 -24 -90 -73 -107 -142 -12 -47 -12 -61 0 -104 8 -27
26 -64 39 -81 30 -40 99 -74 150 -74 48 0 114 29 140 61 10 14 26 24 34 24 9
0 241 -110 517 -244 l500 -243 -11 -32 c-6 -17 -15 -34 -21 -38 -6 -5 -5 -8 2
-8 10 0 10 -6 2 -24 -8 -16 -8 -38 -1 -70 5 -25 6 -46 2 -46 -22 0 -1238 -51
-1421 -60 -119 -5 -254 -10 -300 -9 l-84 0 -30 62 c-16 33 -29 65 -27 70 1 5
-1 6 -6 3 -4 -2 -23 14 -42 36 -90 104 -107 122 -149 151 -117 80 -236 118
-385 124 -87 3 -127 -1 -190 -17 -208 -52 -376 -182 -460 -353 -25 -51 -52
-120 -61 -155 -19 -76 -31 -203 -17 -183 7 9 11 -1 17 -35 10 -72 55 -172 106
-236 24 -31 57 -75 74 -98 34 -48 87 -83 206 -135 124 -55 207 -73 313 -66 20
1 20 1 0 15 -10 8 -16 17 -12 21 3 4 51 8 105 9 54 1 104 5 110 9 7 4 23 5 37
1 28 -7 115 29 179 74 22 14 78 72 126 127 82 95 90 107 112 186 17 60 24 113
26 189 l2 105 28 2 c61 6 886 43 1168 53 165 6 317 15 338 21 22 6 77 7 132 3
86 -6 94 -8 91 -26 -1 -11 -9 -23 -16 -28 -11 -7 -12 -14 -2 -35 7 -14 12 -37
12 -50 0 -19 5 -25 21 -25 18 0 20 4 14 27 -11 45 -11 47 6 50 12 3 22 -9 35
-42 9 -25 30 -66 46 -91 16 -25 24 -43 18 -39 -5 3 -129 -93 -275 -214 l-266
-220 -47 29 c-68 41 -137 62 -223 67 -141 10 -271 -38 -367 -136 -68 -68 -104
-131 -130 -229 -17 -62 -18 -85 -10 -149 5 -42 14 -85 19 -96 6 -10 7 -23 2
-27 -4 -4 -71 -29 -148 -55 -343 -115 -1688 -565 -1691 -565 -1 0 -18 22 -36
49 -62 92 -181 206 -263 251 -71 39 -77 41 -94 26 -36 -32 -76 -16 -83 34 -3
21 -12 27 -68 43 -218 59 -494 29 -683 -74 -38 -22 -71 -39 -73 -39 -9 0 -67
-52 -149 -135 -68 -68 -101 -111 -135 -175 -24 -47 -46 -89 -47 -95 -1 -5 -13
-50 -26 -98 -29 -110 -28 -256 1 -362 11 -38 21 -76 23 -84 2 -8 25 -53 50
-100 50 -92 167 -230 232 -271 20 -13 37 -28 37 -32 0 -4 4 -8 9 -8 4 0 40
-17 78 -39 141 -77 358 -119 527 -101 118 12 263 54 349 101 38 22 74 39 78
39 5 0 9 4 9 8 0 4 17 19 38 32 64 41 181 179 231 271 25 47 48 92 50 100 2 8
12 46 23 84 24 85 29 247 10 325 -7 30 -14 64 -15 75 -2 12 -7 26 -11 33 -4 7
-9 21 -11 32 -3 17 18 26 188 80 106 34 305 97 442 141 138 44 284 91 325 104
101 32 514 164 726 232 l171 55 51 -50 c85 -86 222 -142 345 -142 142 0 308
83 382 191 21 29 31 36 37 27 6 -8 7 -5 3 11 -5 18 -4 22 6 16 9 -6 11 -3 6 8
-3 10 -3 17 1 17 12 0 42 151 42 210 0 65 -21 154 -51 211 -17 34 -18 43 -7
57 11 15 11 15 -3 5 -12 -10 -18 -10 -27 -1 -7 7 -12 15 -12 19 0 16 480 390
491 383 8 -4 9 -3 5 5 -4 7 2 19 15 30 23 19 24 19 84 -33 33 -29 83 -65 110
-80 66 -37 220 -86 267 -86 l38 0 -1 -57 c0 -41 -3 -52 -9 -38 -5 12 -7 -16
-4 -70 2 -59 0 -80 -5 -60 -5 19 -7 -7 -5 -75 2 -74 0 -93 -5 -65 -6 29 -8 13
-5 -55 2 -65 1 -86 -5 -65 -6 20 -8 0 -5 -65 2 -64 0 -85 -5 -65 -6 20 -8 -3
-5 -70 2 -66 0 -90 -5 -70 -6 20 -8 -1 -5 -65 2 -69 1 -87 -6 -65 -7 23 -8 16
-4 -31 l5 -60 -53 -14 c-29 -7 -69 -23 -89 -36 -54 -34 -118 -111 -130 -158
-25 -101 10 -85 -315 -138 -530 -86 -558 -93 -568 -131 -4 -18 -1 -19 42 -14
95 13 328 49 564 87 191 32 243 38 250 28 6 -10 8 -10 8 0 0 22 15 13 28 -17
19 -44 68 -108 96 -126 71 -47 251 -61 329 -27 24 11 62 37 85 59 23 22 44 38
46 36 8 -8 38 112 39 152 0 83 -20 136 -76 193 -45 47 -82 71 -137 87 -33 10
-35 14 -33 51 1 21 14 237 29 479 22 361 30 442 42 453 9 6 42 12 74 12 102 0
287 73 377 149 l34 28 56 -74 c50 -68 56 -73 62 -52 l5 24 12 -22 c7 -12 12
-32 12 -45 0 -13 24 -55 53 -93 28 -39 69 -94 90 -124 l39 -53 34 33 c19 18
34 36 34 40 0 7 -192 272 -240 331 -44 54 -54 81 -40 109 10 21 10 22 -3 7 -8
-10 -17 -18 -21 -18 -13 0 -5 28 14 50 11 13 20 29 20 36 0 7 3 14 8 16 21 9
64 96 83 170 59 232 -3 449 -181 629 -86 86 -95 93 -205 147 -146 72 -360 96
-502 56 -15 -4 -22 -1 -26 13 -4 15 -5 15 -6 -3 -1 -17 -9 -23 -38 -28 -120
-20 -339 -185 -400 -302 -11 -21 -26 -40 -34 -42 -8 -1 -243 105 -524 236
l-510 238 -7 43 c-24 140 -156 218 -274 162z m2134 -491 c43 -11 105 -34 138
-51 80 -41 197 -157 224 -223 12 -28 25 -60 30 -71 38 -88 40 -175 6 -279 -33
-100 -46 -124 -106 -189 -66 -72 -144 -123 -243 -159 -70 -25 -92 -28 -195
-27 -89 0 -130 5 -177 21 -160 54 -275 150 -340 284 -35 70 -39 89 -43 170 -3
66 0 100 12 128 8 20 11 34 6 31 -12 -8 -13 7 -2 20 5 6 15 26 22 45 8 19 31
58 51 86 137 187 387 274 617 214z m-3236 -341 c29 -6 91 -29 137 -51 95 -45
161 -105 203 -183 43 -81 82 -235 60 -235 -6 0 -15 17 -21 38 l-10 37 7 -40
c22 -125 -8 -224 -100 -322 -102 -108 -215 -161 -368 -170 -287 -18 -550 206
-550 468 0 49 7 71 41 136 33 62 37 74 18 58 l-22 -20 24 44 c34 62 151 169
218 199 111 50 246 65 363 41z m2355 -111 c-3 -8 -6 -5 -6 6 -1 11 2 17 5 13
3 -3 4 -12 1 -19z m-22 -148 c3 -6 -4 -10 -17 -10 -18 0 -20 2 -8 10 19 12 18
12 25 0z m-617 -1335 c17 -14 37 -25 45 -25 24 0 31 -19 10 -26 -10 -3 -35
-15 -56 -26 l-39 -20 -29 21 c-15 11 -34 21 -41 21 -7 0 -20 4 -27 9 -12 8 -9
11 13 17 15 3 38 17 51 30 30 30 36 30 73 -1z m1269 -211 c-3 -3 -12 -4 -19
-1 -8 3 -5 6 6 6 11 1 17 -2 13 -5z m-4967 -103 c0 -12 -29 -23 -41 -15 -18
10 -9 24 16 24 14 0 25 -4 25 -9z m696 -11 c248 -62 439 -242 499 -470 19 -70
19 -190 0 -260 -45 -171 -176 -330 -336 -409 -112 -55 -219 -81 -334 -81 -315
0 -594 204 -670 490 -19 70 -19 190 0 260 60 226 250 406 495 470 102 26 242
26 346 0z m4332 5 c57 -17 115 -62 138 -106 16 -32 20 -134 4 -109 -7 11 -10
5 -10 -24 0 -32 -7 -46 -43 -81 -109 -109 -304 -78 -368 60 -25 55 -24 88 7
124 27 33 27 42 -1 15 -27 -27 -28 -8 -2 33 32 50 55 70 103 87 52 19 109 19
172 1z"/>
<path d="M10090 6485 c19 -7 42 -13 50 -13 8 0 -1 6 -20 13 -19 7 -42 13 -50
13 -8 0 1 -6 20 -13z"/>
<path d="M9785 6480 c-13 -5 -14 -9 -5 -9 8 0 24 4 35 9 13 5 14 9 5 9 -8 0
-24 -4 -35 -9z"/>
<path d="M9685 6440 c-3 -6 1 -7 9 -4 18 7 21 14 7 14 -6 0 -13 -4 -16 -10z"/>
<path d="M10230 6435 c14 -8 30 -14 35 -14 6 0 -1 6 -15 14 -14 8 -29 14 -35
14 -5 0 1 -6 15 -14z"/>
<path d="M9553 6346 c-32 -30 -66 -69 -76 -87 -15 -29 -15 -30 -1 -9 10 14 46
53 81 88 78 76 76 82 -4 8z"/>
<path d="M10305 6393 c6 -5 37 -34 70 -63 51 -46 54 -48 20 -11 -22 23 -53 52
-70 63 -16 12 -25 17 -20 11z"/>
<path d="M10490 6156 c0 -8 4 -17 9 -20 5 -4 7 3 4 14 -6 23 -13 26 -13 6z"/>
<path d="M9773 6895 c0 -27 2 -38 4 -22 2 15 2 37 0 50 -2 12 -4 0 -4 -28z"/>
<path d="M7861 6814 c0 -11 3 -14 6 -6 3 7 2 16 -1 19 -3 4 -6 -2 -5 -13z"/>
<path d="M7861 6744 c0 -11 3 -14 6 -6 3 7 2 16 -1 19 -3 4 -6 -2 -5 -13z"/>
<path d="M7915 6630 c10 -11 20 -20 23 -20 3 0 -3 9 -13 20 -10 11 -20 20 -23
20 -3 0 3 -9 13 -20z"/>
<path d="M8184 6628 l-19 -23 23 19 c21 18 27 26 19 26 -2 0 -12 -10 -23 -22z"/>
<path d="M8018 6573 c7 -3 16 -2 19 1 4 3 -2 6 -13 5 -11 0 -14 -3 -6 -6z"/>
<path d="M8078 6573 c7 -3 16 -2 19 1 4 3 -2 6 -13 5 -11 0 -14 -3 -6 -6z"/>
<path d="M8520 6520 c8 -5 20 -10 25 -10 6 0 3 5 -5 10 -8 5 -19 10 -25 10 -5
0 -3 -5 5 -10z"/>
<path d="M8890 6340 c8 -5 20 -10 25 -10 6 0 3 5 -5 10 -8 5 -19 10 -25 10 -5
0 -3 -5 5 -10z"/>
<path d="M9123 5873 c15 -2 37 -2 50 0 12 2 0 4 -28 4 -27 0 -38 -2 -22 -4z"/>
<path d="M8923 5863 c15 -2 39 -2 55 0 15 2 2 4 -28 4 -30 0 -43 -2 -27 -4z"/>
<path d="M8723 5853 c15 -2 39 -2 55 0 15 2 2 4 -28 4 -30 0 -43 -2 -27 -4z"/>
<path d="M8533 5843 c15 -2 39 -2 55 0 15 2 2 4 -28 4 -30 0 -43 -2 -27 -4z"/>
<path d="M8343 5833 c15 -2 39 -2 55 0 15 2 2 4 -28 4 -30 0 -43 -2 -27 -4z"/>
<path d="M8143 5823 c15 -2 37 -2 50 0 12 2 0 4 -28 4 -27 0 -38 -2 -22 -4z"/>
<path d="M7953 5813 c15 -2 39 -2 55 0 15 2 2 4 -28 4 -30 0 -43 -2 -27 -4z"/>
<path d="M7753 5803 c15 -2 39 -2 55 0 15 2 2 4 -28 4 -30 0 -43 -2 -27 -4z"/>
<path d="M7553 5793 c15 -2 39 -2 55 0 15 2 2 4 -28 4 -30 0 -43 -2 -27 -4z"/>
<path d="M10648 5755 c-3 -11 -9 -29 -13 -40 -3 -11 1 -7 10 8 9 16 15 33 12
40 -2 6 -6 3 -9 -8z"/>
<path d="M9291 5700 c14 -31 19 -36 19 -24 0 6 -7 19 -16 30 -14 18 -14 18 -3
-6z"/>
<path d="M9389 5513 c-13 -16 -12 -17 4 -4 9 7 17 15 17 17 0 8 -8 3 -21 -13z"/>
<path d="M9420 5526 c0 -2 8 -10 18 -17 15 -13 16 -12 3 4 -13 16 -21 21 -21
13z"/>
<path d="M9339 5473 c-13 -16 -12 -17 4 -4 9 7 17 15 17 17 0 8 -8 3 -21 -13z"/>
<path d="M10435 5464 l-30 -26 31 21 c17 11 35 17 39 13 5 -4 5 -1 1 6 -9 15
-6 16 -41 -14z"/>
<path d="M9289 5433 c-13 -16 -12 -17 4 -4 16 13 21 21 13 21 -2 0 -10 -8 -17
-17z"/>
<path d="M9520 5436 c0 -3 9 -10 20 -16 11 -6 20 -8 20 -6 0 3 -9 10 -20 16
-11 6 -20 8 -20 6z"/>
<path d="M10374 5424 c-18 -14 -18 -15 4 -4 12 6 22 13 22 15 0 8 -5 6 -26
-11z"/>
<path d="M9234 5388 l-19 -23 23 19 c21 18 27 26 19 26 -2 0 -12 -10 -23 -22z"/>
<path d="M9637 5369 c7 -7 15 -10 18 -7 3 3 -2 9 -12 12 -14 6 -15 5 -6 -5z"/>
<path d="M10275 5370 c-3 -6 1 -7 9 -4 18 7 21 14 7 14 -6 0 -13 -4 -16 -10z"/>
<path d="M9179 5343 c-13 -16 -12 -17 4 -4 9 7 17 15 17 17 0 8 -8 3 -21 -13z"/>
<path d="M9738 5333 c7 -3 16 -2 19 1 4 3 -2 6 -13 5 -11 0 -14 -3 -6 -6z"/>
<path d="M10120 5325 c-25 -7 -36 -13 -25 -13 11 0 38 5 60 13 52 17 24 17
-35 0z"/>
<path d="M9785 5320 c11 -5 29 -8 40 -8 16 0 15 2 -5 8 -34 11 -60 11 -35 0z"/>
<path d="M9129 5303 c-13 -16 -12 -17 4 -4 9 7 17 15 17 17 0 8 -8 3 -21 -13z"/>
<path d="M9079 5263 c-13 -16 -12 -17 4 -4 16 13 21 21 13 21 -2 0 -10 -8 -17
-17z"/>
<path d="M10981 5239 c-63 -19 -149 -88 -177 -142 -13 -25 -17 -27 -32 -15
-15 11 -15 11 -4 -3 8 -10 10 -32 6 -60 -8 -58 20 -174 53 -222 14 -21 48 -54
75 -73 45 -34 61 -67 41 -88 -4 -3 -8 -12 -9 -19 -1 -7 -25 -132 -54 -279 -47
-238 -55 -268 -71 -268 -34 0 -109 -42 -133 -74 -88 -117 -46 -277 87 -334 62
-27 163 0 206 54 10 13 20 21 23 19 9 -9 30 118 25 154 -8 59 -37 111 -78 140
-21 14 -38 33 -39 42 0 9 23 130 50 270 28 140 53 270 56 289 6 44 16 50 90
50 48 0 74 7 120 30 95 48 133 90 156 173 13 45 18 84 14 108 -16 97 -81 186
-170 229 -56 27 -177 37 -235 19z m232 -122 c33 -21 60 -49 70 -70 19 -38 23
-122 7 -132 -5 -3 -10 -16 -10 -27 0 -12 -19 -40 -44 -64 -109 -104 -296 -75
-364 57 -19 37 -22 53 -17 99 16 127 90 183 232 176 64 -3 79 -7 126 -39z"/>
<path d="M9029 5223 c-13 -16 -12 -17 4 -4 9 7 17 15 17 17 0 8 -8 3 -21 -13z"/>
<path d="M8979 5183 c-13 -16 -12 -17 4 -4 9 7 17 15 17 17 0 8 -8 3 -21 -13z"/>
<path d="M6843 5133 c9 -2 23 -2 30 0 6 3 -1 5 -18 5 -16 0 -22 -2 -12 -5z"/>
<path d="M6410 5125 c0 -7 61 -37 66 -33 2 3 -12 12 -31 21 -19 9 -35 15 -35
12z"/>
<path d="M8022 4845 c0 -16 2 -22 5 -12 2 9 2 23 0 30 -3 6 -5 -1 -5 -18z"/>
<path d="M8022 4745 c0 -16 2 -22 5 -12 2 9 2 23 0 30 -3 6 -5 -1 -5 -18z"/>
<path d="M8100 4521 c0 -5 7 -12 16 -15 14 -5 15 -4 4 9 -14 17 -20 19 -20 6z"/>
<path d="M8879 4513 c-13 -16 -12 -17 4 -4 16 13 21 21 13 21 -2 0 -10 -8 -17
-17z"/>
<path d="M8155 4460 c10 -11 20 -20 23 -20 3 0 -3 9 -13 20 -10 11 -20 20 -23
20 -3 0 3 -9 13 -20z"/>
<path d="M8834 4458 l-19 -23 23 19 c12 11 22 21 22 23 0 8 -8 2 -26 -19z"/>
<path d="M8200 4426 c0 -2 8 -10 18 -17 15 -13 16 -12 3 4 -13 16 -21 21 -21
13z"/>
<path d="M8779 4413 c-13 -16 -12 -17 4 -4 16 13 21 21 13 21 -2 0 -10 -8 -17
-17z"/>
<path d="M8433 4323 c9 -2 23 -2 30 0 6 3 -1 5 -18 5 -16 0 -22 -2 -12 -5z"/>
<path d="M8543 4323 c9 -2 23 -2 30 0 6 3 -1 5 -18 5 -16 0 -22 -2 -12 -5z"/>
<path d="M9478 4023 c7 -3 16 -2 19 1 4 3 -2 6 -13 5 -11 0 -14 -3 -6 -6z"/>
<path d="M9418 4013 c7 -3 16 -2 19 1 4 3 -2 6 -13 5 -11 0 -14 -3 -6 -6z"/>
<path d="M9358 4003 c7 -3 16 -2 19 1 4 3 -2 6 -13 5 -11 0 -14 -3 -6 -6z"/>
<path d="M7854 3981 c-53 -24 -90 -73 -107 -142 -12 -47 -12 -61 0 -104 8 -27
26 -64 39 -81 30 -40 99 -74 149 -74 47 0 118 33 145 67 11 14 20 22 21 17 1
-16 29 96 31 127 3 35 -23 28 282 79 131 22 241 42 243 44 3 2 2 14 -2 26 -7
21 -11 22 -69 16 -123 -14 -441 -67 -458 -76 -13 -7 -18 -7 -18 1 0 24 -54 82
-94 100 -22 10 -59 19 -81 19 -22 0 -59 -9 -81 -19z"/>
<path d="M9298 3993 c7 -3 16 -2 19 1 4 3 -2 6 -13 5 -11 0 -14 -3 -6 -6z"/>
<path d="M9238 3983 c7 -3 16 -2 19 1 4 3 -2 6 -13 5 -11 0 -14 -3 -6 -6z"/>
<path d="M9168 3973 c7 -3 16 -2 19 1 4 3 -2 6 -13 5 -11 0 -14 -3 -6 -6z"/>
<path d="M9108 3963 c7 -3 16 -2 19 1 4 3 -2 6 -13 5 -11 0 -14 -3 -6 -6z"/>
<path d="M9048 3953 c7 -3 16 -2 19 1 4 3 -2 6 -13 5 -11 0 -14 -3 -6 -6z"/>
<path d="M8988 3943 c7 -3 16 -2 19 1 4 3 -2 6 -13 5 -11 0 -14 -3 -6 -6z"/>
<path d="M8928 3933 c7 -3 16 -2 19 1 4 3 -2 6 -13 5 -11 0 -14 -3 -6 -6z"/>
<path d="M8858 3923 c7 -3 16 -2 19 1 4 3 -2 6 -13 5 -11 0 -14 -3 -6 -6z"/>
<path d="M8798 3913 c7 -3 16 -2 19 1 4 3 -2 6 -13 5 -11 0 -14 -3 -6 -6z"/>
<path d="M8738 3903 c7 -3 16 -2 19 1 4 3 -2 6 -13 5 -11 0 -14 -3 -6 -6z"/>
<path d="M8678 3893 c7 -3 16 -2 19 1 4 3 -2 6 -13 5 -11 0 -14 -3 -6 -6z"/>
<path d="M10611 3814 c0 -11 3 -14 6 -6 3 7 2 16 -1 19 -3 4 -6 -2 -5 -13z"/>
<path d="M8178 3813 c7 -3 16 -2 19 1 4 3 -2 6 -13 5 -11 0 -14 -3 -6 -6z"/>
<path d="M7721 3744 c0 -11 3 -14 6 -6 3 7 2 16 -1 19 -3 4 -6 -2 -5 -13z"/>
<path d="M8158 3753 c7 -3 16 -2 19 1 4 3 -2 6 -13 5 -11 0 -14 -3 -6 -6z"/>
<path d="M0 840 c0 -5 5 -10 10 -10 6 0 10 5 10 10 0 6 -4 10 -10 10 -5 0 -10
-4 -10 -10z"/>
</g>
</svg>
