<?xml version="1.0" standalone="no"?>
<!DOCTYPE svg PUBLIC "-//W3C//DTD SVG 20010904//EN"
 "http://www.w3.org/TR/2001/REC-SVG-20010904/DTD/svg10.dtd">
<svg version="1.0" xmlns="http://www.w3.org/2000/svg"
 width="1401.000000pt" height="1401.000000pt" viewBox="0 0 1401.000000 1401.000000"
 preserveAspectRatio="xMidYMid meet">
<metadata>
Created by potrace 1.11, written by Peter Selinger 2001-2013
</metadata>
<g transform="translate(0.000000,1401.000000) scale(0.100000,-0.100000)"
fill="#000000" stroke="none">
<path d="M5930 11993 c-500 -29 -1017 -142 -1405 -308 -338 -144 -703 -361
-859 -510 -51 -50 -57 -60 -52 -86 13 -69 -29 -129 -91 -129 -19 0 -23 -6 -23
-29 0 -16 -3 -36 -6 -45 -11 -29 -24 -5 -24 44 0 62 -20 72 -64 33 -343 -312
-628 -698 -865 -1171 -325 -649 -512 -1398 -566 -2260 -55 -873 46 -1775 276
-2477 16 -49 33 -99 39 -110 5 -11 23 -63 41 -115 42 -126 133 -339 218 -508
579 -1157 1557 -1904 2755 -2107 145 -25 157 -25 699 -25 538 0 556 1 726 25
658 96 1269 320 1777 651 269 176 581 450 785 691 l70 81 -275 345 c-151 190
-290 356 -308 370 -69 52 -120 70 -205 75 -63 3 -96 0 -150 -16 -87 -27 -136
-59 -275 -178 -240 -206 -459 -357 -668 -463 -275 -139 -476 -206 -745 -247
-173 -27 -688 -27 -854 -1 -887 141 -1545 750 -1886 1747 -140 410 -219 825
-255 1345 -13 188 -13 748 0 943 34 501 112 918 245 1317 349 1047 1036 1651
2015 1770 169 20 532 21 715 1 236 -26 453 -85 712 -196 198 -85 420 -215 653
-380 141 -100 191 -126 281 -147 58 -13 83 -13 145 -4 41 6 92 20 113 30 54
28 135 113 217 227 39 54 148 206 242 338 95 131 172 242 172 246 0 18 -429
399 -450 400 -3 0 -6 -10 -7 -22 -5 -58 -86 -76 -132 -30 -16 15 -39 33 -52
39 -17 8 -19 12 -7 12 9 1 25 11 35 24 10 12 28 30 41 38 22 16 22 17 -68 80
-233 165 -559 339 -830 442 -351 134 -744 216 -1188 246 -139 10 -524 12 -662
4z m-707 -646 c48 -17 59 -29 55 -58 -2 -17 -16 -29 -50 -43 -44 -18 -48 -18
-72 -2 -33 21 -35 67 -4 96 26 24 23 23 71 7z m1442 -52 c0 -25 -4 -30 -27
-33 -16 -2 -28 1 -28 7 0 6 -7 11 -15 11 -13 0 -13 3 1 26 12 18 24 24 43 22
22 -2 26 -8 26 -33z m170 -573 c-3 -8 -5 -18 -5 -23 0 -5 -6 -9 -14 -9 -18 0
-25 30 -14 60 9 24 10 25 24 5 8 -11 12 -26 9 -33z m755 -179 c0 -13 -23 -44
-40 -53 -18 -10 -20 -7 -20 24 0 32 2 35 30 34 17 -1 30 -3 30 -5z m-4536
-766 c16 -12 16 -14 -9 -25 -27 -12 -65 -2 -65 18 0 20 49 25 74 7z m660
-1473 c44 -43 56 -64 38 -64 -9 0 -102 95 -102 104 0 16 23 2 64 -40z m-83 -5
c38 2 79 -42 77 -85 -1 -18 4 -40 11 -48 20 -23 4 -39 -21 -21 -12 8 -32 12
-44 9 -28 -7 -84 21 -85 44 -1 9 0 30 1 45 1 16 -7 38 -17 49 -18 21 -18 21
17 13 19 -4 47 -7 61 -6z m-1102 -598 c20 -13 4 -31 -29 -31 -16 0 -32 5 -36
11 -7 12 13 29 36 29 8 0 21 -4 29 -9z m415 -423 c-10 -33 -36 -48 -49 -28 -6
10 29 50 46 50 6 0 8 -9 3 -22z m414 -855 c-3 -29 -46 -59 -61 -44 -11 11 12
59 32 64 30 8 32 7 29 -20z m463 -662 l23 -18 -31 -16 c-25 -13 -35 -14 -57
-4 -32 15 -32 21 -4 41 29 21 41 20 69 -3z m-721 -140 c0 -21 -35 -51 -58 -51
-9 0 -11 7 -7 23 13 42 65 65 65 28z m-708 -278 c-17 -27 -32 -30 -33 -5 -1 9
-3 29 -4 44 -3 21 1 27 18 30 28 4 39 -37 19 -69z m696 -181 c9 -22 9 -34 -1
-55 -15 -34 -21 -34 -36 0 -9 20 -9 33 0 55 14 35 21 35 37 0z m-696 -229 c10
-9 18 -20 18 -25 0 -10 -61 -11 -85 -1 -15 5 -15 8 6 24 30 23 38 23 61 2z
m1663 -353 c12 -23 13 -34 3 -55 -14 -31 -21 -31 -38 -1 -10 20 -10 30 1 55 8
17 15 31 16 31 1 0 9 -13 18 -30z m-897 -306 c-3 -16 -56 -39 -67 -29 -2 3 8
19 24 35 29 31 50 28 43 -6z m-213 -113 c6 -29 -2 -81 -14 -81 -3 0 -14 14
-23 31 -17 29 -17 32 0 54 22 32 29 31 37 -4z m403 -474 c-4 -33 -52 -31 -56
2 -2 13 2 27 9 32 20 12 51 -9 47 -34z m4360 4 c34 -29 27 -41 -23 -41 -25 0
-45 3 -45 7 0 6 40 53 45 53 1 0 12 -8 23 -19z m-4244 -375 c28 -1 31 -5 37
-41 7 -43 3 -58 -10 -36 -5 7 -11 12 -15 12 -19 -3 -26 2 -45 35 -24 40 -26
48 -9 38 7 -4 26 -8 42 -8z m3154 -121 c10 -23 7 -35 -10 -35 -13 0 -48 39
-48 54 0 22 46 7 58 -19z m-1381 -464 c6 -10 26 -21 45 -25 26 -5 30 -9 18
-16 -8 -5 -25 -10 -37 -10 -13 0 -23 -6 -23 -14 0 -31 -74 -36 -90 -6 -6 12
-21 20 -36 20 -29 0 -29 23 0 28 10 2 26 12 37 23 24 24 71 25 86 0z"/>
<path d="M5250 11294 c0 -8 5 -12 10 -9 6 3 10 10 10 16 0 5 -4 9 -10 9 -5 0
-10 -7 -10 -16z"/>
<path d="M11675 9157 c-56 -23 -84 -49 -110 -102 -15 -29 -26 -71 -27 -93 -1
-57 41 -142 84 -171 l34 -24 18 -346 c10 -190 21 -349 25 -354 4 -4 32 -4 62
0 l54 8 -3 55 c-5 111 -22 438 -28 531 l-5 96 25 7 c13 3 41 21 60 40 20 18
36 31 37 27 2 -21 28 101 29 135 0 56 -43 139 -90 170 -44 29 -122 39 -165 21z"/>
<path d="M11521 8914 c0 -11 3 -14 6 -6 3 7 2 16 -1 19 -3 4 -6 -2 -5 -13z"/>
<path d="M11521 8844 c0 -11 3 -14 6 -6 3 7 2 16 -1 19 -3 4 -6 -2 -5 -13z"/>
<path d="M11540 8781 c0 -6 4 -13 10 -16 6 -3 7 1 4 9 -7 18 -14 21 -14 7z"/>
<path d="M11876 8773 c-6 -14 -5 -15 5 -6 7 7 10 15 7 18 -3 3 -9 -2 -12 -12z"/>
<path d="M11575 8730 c10 -11 20 -20 23 -20 3 0 -3 9 -13 20 -10 11 -20 20
-23 20 -3 0 3 -9 13 -20z"/>
<path d="M11844 8728 l-19 -23 23 19 c21 18 27 26 19 26 -2 0 -12 -10 -23 -22z"/>
<path d="M11643 8560 c0 -30 2 -43 4 -27 2 15 2 39 0 55 -2 15 -4 2 -4 -28z"/>
<path d="M11653 8375 c0 -27 2 -38 4 -22 2 15 2 37 0 50 -2 12 -4 0 -4 -28z"/>
<path d="M9884 8351 c-53 -24 -90 -73 -107 -142 -43 -166 117 -309 269 -240
22 10 49 29 60 42 10 14 26 24 34 24 9 0 241 -110 517 -244 l500 -244 -11 -31
c-6 -17 -15 -34 -21 -38 -6 -5 -5 -8 2 -8 10 0 10 -6 2 -24 -8 -16 -8 -38 -2
-69 l10 -45 -121 -6 c-67 -3 -341 -15 -611 -26 -269 -11 -585 -25 -700 -30
-116 -6 -249 -10 -295 -9 l-85 0 -30 62 c-16 33 -29 65 -28 69 2 4 0 7 -5 5
-8 -2 -53 43 -102 106 -61 78 -158 135 -304 178 -124 36 -242 39 -362 9 -269
-69 -462 -263 -523 -526 -21 -93 -29 -191 -12 -165 6 9 11 -3 16 -35 9 -62 60
-186 86 -210 11 -10 40 -49 65 -86 51 -78 99 -113 234 -173 111 -49 130 -54
224 -64 84 -9 143 -1 98 13 -49 16 -17 26 82 26 63 0 107 4 111 11 4 6 19 7
35 4 35 -8 115 24 182 72 55 40 203 208 218 248 32 85 50 181 50 270 l0 95 43
0 c23 0 222 9 442 19 220 11 537 25 705 31 168 6 322 15 342 21 21 5 78 7 132
3 87 -6 95 -9 92 -26 -1 -11 -8 -23 -14 -27 -9 -5 -9 -19 0 -59 10 -40 17 -52
31 -52 16 0 18 5 12 27 -11 45 -11 47 6 50 12 3 22 -9 35 -42 9 -25 30 -66 46
-91 16 -25 24 -43 18 -39 -5 3 -129 -93 -276 -214 l-266 -221 -29 21 c-89 63
-254 95 -368 70 -88 -19 -177 -67 -239 -130 -68 -68 -104 -131 -130 -229 -17
-62 -18 -85 -10 -149 5 -42 14 -85 19 -96 6 -10 7 -23 2 -27 -4 -4 -78 -31
-163 -60 -412 -138 -1674 -560 -1677 -560 -1 0 -15 19 -29 41 -14 23 -62 81
-107 128 -60 64 -101 97 -160 129 -75 42 -79 43 -97 27 -29 -26 -67 -13 -78
28 -8 29 -14 34 -73 50 -217 59 -494 29 -682 -74 -38 -22 -71 -39 -73 -39 -9
0 -67 -52 -149 -135 -68 -68 -101 -111 -135 -175 -24 -47 -46 -89 -47 -95 -1
-5 -13 -50 -26 -98 -29 -110 -28 -256 1 -362 11 -38 21 -76 23 -84 2 -8 25
-53 50 -100 50 -92 167 -230 232 -271 20 -13 37 -28 37 -32 0 -4 4 -8 9 -8 4
0 40 -17 78 -39 141 -77 358 -119 527 -101 118 12 263 54 349 101 38 22 74 39
78 39 5 0 9 4 9 8 0 4 17 19 38 32 64 41 181 179 231 271 25 47 48 92 50 100
2 8 12 46 23 84 24 85 29 247 10 325 -7 30 -14 64 -15 75 -2 12 -7 26 -11 33
-4 7 -9 21 -11 32 -3 17 18 26 188 80 106 34 305 97 442 141 138 44 284 91
325 104 101 32 514 164 726 232 l171 55 51 -50 c85 -86 222 -142 345 -142 143
0 307 82 382 190 21 30 31 37 37 28 6 -8 7 -5 3 11 -5 18 -4 22 6 16 9 -6 11
-3 6 8 -3 10 -3 17 1 17 12 0 42 151 42 210 0 65 -21 154 -51 211 -17 34 -18
43 -7 57 11 15 11 15 -3 5 -12 -10 -18 -10 -27 -1 -7 7 -12 15 -12 19 0 15
480 390 491 383 8 -4 9 -3 5 5 -4 7 2 19 15 30 23 19 24 19 84 -33 33 -29 83
-65 110 -80 66 -37 220 -86 267 -86 l38 0 -1 -57 c0 -42 -3 -52 -9 -38 -5 12
-7 -13 -5 -65 3 -58 2 -75 -4 -55 -6 20 -8 -8 -5 -80 2 -76 0 -98 -5 -70 -6
29 -8 13 -5 -55 2 -65 1 -86 -5 -65 -6 20 -8 0 -5 -65 2 -64 0 -85 -5 -65 -6
20 -8 -3 -5 -70 2 -68 0 -89 -5 -65 -6 24 -8 3 -5 -65 2 -72 1 -92 -6 -70 -7
23 -8 16 -4 -31 l5 -60 -51 -12 c-109 -25 -200 -115 -228 -223 -8 -33 -20 -63
-26 -65 -6 -2 -177 -31 -381 -64 -440 -72 -426 -70 -446 -81 -25 -13 -31 -49
-9 -49 23 0 408 59 654 101 144 24 181 27 187 17 7 -10 9 -10 9 0 0 23 15 12
34 -27 25 -53 72 -108 106 -126 15 -8 65 -22 112 -31 129 -25 198 -5 307 88
63 54 85 196 44 288 -33 74 -110 140 -193 165 -32 10 -35 14 -34 46 1 19 14
234 30 479 22 364 30 447 43 458 8 6 41 12 73 12 103 0 313 84 388 155 24 23
26 24 37 6 9 -14 9 -21 0 -30 -9 -9 -8 -11 4 -6 12 4 27 -9 55 -47 28 -37 40
-47 42 -35 6 31 22 18 28 -24 4 -22 17 -53 28 -67 57 -69 156 -213 156 -224 0
-7 -6 -21 -14 -30 -10 -14 -15 -15 -26 -5 -12 10 -12 9 -2 -4 8 -11 10 -31 6
-57 -10 -60 20 -180 57 -231 17 -23 51 -55 75 -72 48 -33 59 -69 27 -88 -10
-6 -13 -11 -8 -11 6 0 -14 -120 -44 -275 -48 -242 -56 -275 -73 -275 -33 0
-109 -42 -132 -74 -88 -117 -46 -277 87 -334 63 -27 163 0 207 55 11 14 20 22
21 17 1 -23 28 95 29 127 0 70 -46 159 -96 181 -13 6 -24 19 -24 28 0 46 101
524 112 532 10 6 10 8 0 8 -15 0 -5 51 12 62 5 4 36 6 68 6 68 -1 159 39 221
98 41 38 77 127 77 189 0 78 -69 193 -143 239 -119 74 -274 61 -378 -31 -41
-35 -46 -38 -20 -11 21 23 30 41 25 50 -14 25 -218 303 -245 335 -35 41 -43
67 -29 95 11 22 10 22 -4 4 -19 -24 -35 -12 -18 12 7 9 18 28 24 42 7 14 15
27 18 30 26 25 63 103 81 172 60 230 -3 450 -181 629 -86 86 -95 93 -205 147
-146 72 -360 96 -502 56 -15 -4 -22 -1 -26 13 -4 15 -5 15 -6 -3 -1 -17 -9
-23 -38 -28 -120 -20 -339 -185 -400 -302 -11 -21 -26 -40 -34 -41 -8 -2 -243
104 -524 235 l-510 238 -7 43 c-24 140 -156 218 -274 162z m2134 -491 c43 -11
105 -34 138 -51 80 -41 197 -157 224 -223 12 -28 25 -60 30 -71 38 -89 40
-175 6 -279 -56 -170 -169 -283 -350 -348 -69 -25 -91 -28 -194 -27 -126 1
-162 9 -277 65 -59 28 -185 129 -185 148 0 3 -8 15 -17 26 -10 11 -32 53 -50
93 -28 62 -32 84 -33 155 0 51 6 96 15 118 8 19 10 32 5 29 -12 -8 -13 7 -2
20 5 6 15 26 22 45 8 19 31 58 51 86 136 186 388 273 617 214z m-3225 -344
c51 -13 137 -50 205 -90 33 -19 89 -82 119 -134 32 -54 70 -179 65 -212 -4
-24 -5 -23 -18 10 l-14 35 8 -45 c23 -140 -14 -237 -130 -344 -39 -36 -75 -66
-81 -66 -6 0 -18 -7 -27 -15 -28 -25 -142 -56 -230 -62 -250 -16 -482 147
-541 383 -19 74 -6 154 36 229 20 36 31 65 25 65 -5 0 -10 -5 -10 -12 0 -6 -3
-9 -6 -5 -23 23 138 183 226 224 108 51 256 66 373 39z m2344 -108 c-3 -8 -6
-5 -6 6 -1 11 2 17 5 13 3 -3 4 -12 1 -19z m-22 -148 c3 -6 -4 -10 -17 -10
-18 0 -20 2 -8 10 19 12 18 12 25 0z m1988 -843 c33 -21 60 -49 70 -70 19 -38
23 -122 7 -132 -5 -3 -10 -16 -10 -27 0 -12 -19 -40 -44 -64 -109 -104 -296
-75 -364 57 -19 37 -22 53 -17 99 16 127 90 183 232 176 64 -3 79 -7 126 -39z
m-2607 -492 c14 -14 33 -25 44 -25 26 0 36 -19 13 -26 -10 -3 -34 -13 -54 -24
-31 -16 -38 -17 -60 -5 -23 14 -32 18 -74 35 -18 7 -17 8 8 15 16 4 39 18 52
31 30 30 40 30 71 -1z m1271 -211 c-3 -3 -12 -4 -19 -1 -8 3 -5 6 6 6 11 1 17
-2 13 -5z m-4973 -103 c7 -11 -22 -23 -35 -15 -5 3 -9 9 -9 15 0 12 37 12 44
0z m702 -11 c248 -62 439 -242 499 -470 19 -70 19 -190 0 -260 -45 -171 -176
-330 -336 -409 -222 -109 -446 -109 -668 0 -66 33 -103 60 -166 123 -124 122
-185 260 -185 416 0 274 211 522 510 600 102 26 242 26 346 0z m4332 5 c57
-17 115 -62 138 -106 7 -15 14 -49 14 -75 0 -41 -2 -45 -13 -30 -11 15 -12 12
-9 -22 3 -34 -1 -45 -33 -80 -104 -116 -311 -87 -376 53 -25 55 -24 82 8 124
l28 36 -28 -18 c-33 -21 -34 -17 -3 31 31 49 54 69 102 86 52 19 109 19 172 1z"/>
<path d="M11980 7785 c19 -7 42 -13 50 -13 8 0 -1 6 -20 13 -19 7 -42 13 -50
13 -8 0 1 -6 20 -13z"/>
<path d="M11675 7780 c-13 -5 -14 -9 -5 -9 8 0 24 4 35 9 13 5 14 9 5 9 -8 0
-24 -4 -35 -9z"/>
<path d="M11564 7734 c-18 -14 -18 -14 6 -3 31 14 36 19 24 19 -6 0 -19 -7
-30 -16z"/>
<path d="M12120 7735 c14 -8 30 -14 35 -14 6 0 -1 6 -15 14 -14 8 -29 14 -35
14 -5 0 1 -6 15 -14z"/>
<path d="M11443 7646 c-32 -30 -66 -69 -76 -87 -15 -29 -15 -30 -1 -9 10 14
46 53 81 88 78 76 76 82 -4 8z"/>
<path d="M12195 7693 c6 -5 37 -34 70 -63 51 -46 54 -48 20 -11 -22 23 -53 52
-70 63 -16 12 -25 17 -20 11z"/>
<path d="M12375 7468 c4 -13 11 -27 16 -33 5 -5 4 5 -2 23 -12 36 -24 44 -14
10z"/>
<path d="M11663 8190 c0 -30 2 -43 4 -27 2 15 2 39 0 55 -2 15 -4 2 -4 -28z"/>
<path d="M9751 8114 c0 -11 3 -14 6 -6 3 7 2 16 -1 19 -3 4 -6 -2 -5 -13z"/>
<path d="M9751 8044 c0 -11 3 -14 6 -6 3 7 2 16 -1 19 -3 4 -6 -2 -5 -13z"/>
<path d="M9770 7981 c0 -6 4 -13 10 -16 6 -3 7 1 4 9 -7 18 -14 21 -14 7z"/>
<path d="M10107 7977 c-3 -8 1 -14 8 -14 7 0 11 6 8 14 -3 7 -6 13 -8 13 -2 0
-5 -6 -8 -13z"/>
<path d="M9805 7930 c10 -11 20 -20 23 -20 3 0 -3 9 -13 20 -10 11 -20 20 -23
20 -3 0 3 -9 13 -20z"/>
<path d="M10074 7928 l-19 -23 23 19 c21 18 27 26 19 26 -2 0 -12 -10 -23 -22z"/>
<path d="M9908 7873 c7 -3 16 -2 19 1 4 3 -2 6 -13 5 -11 0 -14 -3 -6 -6z"/>
<path d="M9968 7873 c7 -3 16 -2 19 1 4 3 -2 6 -13 5 -11 0 -14 -3 -6 -6z"/>
<path d="M10430 7810 c19 -11 40 -19 45 -19 6 0 -6 8 -25 19 -19 11 -39 19
-45 19 -5 0 6 -8 25 -19z"/>
<path d="M10790 7635 c14 -8 30 -14 35 -14 6 0 -1 6 -15 14 -14 8 -29 14 -35
14 -5 0 1 -6 15 -14z"/>
<path d="M11013 7173 c15 -2 37 -2 50 0 12 2 0 4 -28 4 -27 0 -38 -2 -22 -4z"/>
<path d="M10813 7163 c15 -2 39 -2 55 0 15 2 2 4 -28 4 -30 0 -43 -2 -27 -4z"/>
<path d="M10613 7153 c15 -2 39 -2 55 0 15 2 2 4 -28 4 -30 0 -43 -2 -27 -4z"/>
<path d="M10423 7143 c15 -2 39 -2 55 0 15 2 2 4 -28 4 -30 0 -43 -2 -27 -4z"/>
<path d="M10233 7133 c15 -2 39 -2 55 0 15 2 2 4 -28 4 -30 0 -43 -2 -27 -4z"/>
<path d="M10033 7123 c15 -2 39 -2 55 0 15 2 2 4 -28 4 -30 0 -43 -2 -27 -4z"/>
<path d="M9843 7113 c15 -2 39 -2 55 0 15 2 2 4 -28 4 -30 0 -43 -2 -27 -4z"/>
<path d="M9643 7103 c15 -2 39 -2 55 0 15 2 2 4 -28 4 -30 0 -43 -2 -27 -4z"/>
<path d="M9443 7093 c15 -2 39 -2 55 0 15 2 2 4 -28 4 -30 0 -43 -2 -27 -4z"/>
<path d="M12538 7055 c-3 -11 -9 -29 -13 -40 -3 -11 1 -7 10 8 9 16 15 33 12
40 -2 6 -6 3 -9 -8z"/>
<path d="M11181 7000 c14 -31 19 -36 19 -24 0 6 -7 19 -16 30 -14 18 -14 18
-3 -6z"/>
<path d="M11279 6813 c-13 -16 -12 -17 4 -4 9 7 17 15 17 17 0 8 -8 3 -21 -13z"/>
<path d="M11310 6826 c0 -2 8 -10 18 -17 15 -13 16 -12 3 4 -13 16 -21 21 -21
13z"/>
<path d="M11229 6773 c-13 -16 -12 -17 4 -4 9 7 17 15 17 17 0 8 -8 3 -21 -13z"/>
<path d="M12325 6764 l-30 -26 31 21 c17 11 35 17 39 13 5 -4 5 -1 1 6 -9 15
-6 16 -41 -14z"/>
<path d="M11179 6733 c-13 -16 -12 -17 4 -4 9 7 17 15 17 17 0 8 -8 3 -21 -13z"/>
<path d="M11410 6736 c0 -3 9 -10 20 -16 11 -6 20 -8 20 -6 0 3 -9 10 -20 16
-11 6 -20 8 -20 6z"/>
<path d="M12264 6724 c-18 -14 -18 -15 4 -4 12 6 22 13 22 15 0 8 -5 6 -26
-11z"/>
<path d="M11124 6688 l-19 -23 23 19 c21 18 27 26 19 26 -2 0 -12 -10 -23 -22z"/>
<path d="M11520 6670 c8 -5 20 -10 25 -10 6 0 3 5 -5 10 -8 5 -19 10 -25 10
-5 0 -3 -5 5 -10z"/>
<path d="M12160 6670 c-8 -5 -10 -10 -5 -10 6 0 17 5 25 10 8 5 11 10 5 10 -5
0 -17 -5 -25 -10z"/>
<path d="M11069 6643 c-13 -16 -12 -17 4 -4 9 7 17 15 17 17 0 8 -8 3 -21 -13z"/>
<path d="M11660 6624 c25 -7 52 -13 60 -13 8 0 -5 7 -30 15 -25 7 -52 13 -60
13 -8 0 5 -7 30 -15z"/>
<path d="M12010 6625 c-25 -7 -36 -13 -25 -13 11 0 38 5 60 13 52 17 24 17
-35 0z"/>
<path d="M11019 6603 c-13 -16 -12 -17 4 -4 16 13 21 21 13 21 -2 0 -10 -8
-17 -17z"/>
<path d="M10969 6563 c-13 -16 -12 -17 4 -4 9 7 17 15 17 17 0 8 -8 3 -21 -13z"/>
<path d="M10919 6523 c-13 -16 -12 -17 4 -4 9 7 17 15 17 17 0 8 -8 3 -21 -13z"/>
<path d="M10869 6483 c-13 -16 -12 -17 4 -4 9 7 17 15 17 17 0 8 -8 3 -21 -13z"/>
<path d="M8725 6439 c-16 -6 -13 -8 13 -8 17 -1 32 3 32 7 0 11 -20 11 -45 1z"/>
<path d="M8300 6425 c0 -7 61 -37 66 -33 2 3 -12 12 -31 21 -19 9 -35 15 -35
12z"/>
<path d="M9912 6145 c0 -16 2 -22 5 -12 2 9 2 23 0 30 -3 6 -5 -1 -5 -18z"/>
<path d="M9912 6045 c0 -16 2 -22 5 -12 2 9 2 23 0 30 -3 6 -5 -1 -5 -18z"/>
<path d="M9990 5821 c0 -5 7 -12 16 -15 14 -5 15 -4 4 9 -14 17 -20 19 -20 6z"/>
<path d="M10769 5813 c-13 -16 -12 -17 4 -4 9 7 17 15 17 17 0 8 -8 3 -21 -13z"/>
<path d="M10040 5765 c13 -14 26 -25 28 -25 3 0 -5 11 -18 25 -13 14 -26 25
-28 25 -3 0 5 -11 18 -25z"/>
<path d="M10729 5763 l-24 -28 28 24 c25 23 32 31 24 31 -2 0 -14 -12 -28 -27z"/>
<path d="M10090 5726 c0 -2 8 -10 18 -17 15 -13 16 -12 3 4 -13 16 -21 21 -21
13z"/>
<path d="M10669 5713 c-13 -16 -12 -17 4 -4 9 7 17 15 17 17 0 8 -8 3 -21 -13z"/>
<path d="M10164 5676 c11 -9 24 -16 30 -16 12 0 7 5 -24 19 -24 11 -24 11 -6
-3z"/>
<path d="M10600 5675 c-14 -8 -20 -14 -14 -15 5 0 19 7 30 15 24 18 16 19 -16
0z"/>
<path d="M10323 5623 c9 -2 23 -2 30 0 6 3 -1 5 -18 5 -16 0 -22 -2 -12 -5z"/>
<path d="M10433 5623 c9 -2 23 -2 30 0 6 3 -1 5 -18 5 -16 0 -22 -2 -12 -5z"/>
<path d="M11368 5323 c7 -3 16 -2 19 1 4 3 -2 6 -13 5 -11 0 -14 -3 -6 -6z"/>
<path d="M11308 5313 c7 -3 16 -2 19 1 4 3 -2 6 -13 5 -11 0 -14 -3 -6 -6z"/>
<path d="M11248 5303 c7 -3 16 -2 19 1 4 3 -2 6 -13 5 -11 0 -14 -3 -6 -6z"/>
<path d="M9744 5281 c-53 -24 -90 -73 -107 -142 -12 -47 -12 -61 0 -104 8 -27
26 -64 39 -81 30 -40 99 -74 149 -74 47 0 118 33 145 67 11 14 20 22 21 17 1
-16 29 96 31 127 3 35 -24 28 282 78 131 22 240 42 243 45 3 2 2 14 -2 25 -4
14 -15 21 -32 21 -45 0 -477 -70 -495 -80 -13 -7 -18 -7 -18 1 0 24 -54 82
-94 100 -22 10 -59 19 -81 19 -22 0 -59 -9 -81 -19z"/>
<path d="M11188 5293 c7 -3 16 -2 19 1 4 3 -2 6 -13 5 -11 0 -14 -3 -6 -6z"/>
<path d="M11118 5283 c6 -2 18 -2 25 0 6 3 1 5 -13 5 -14 0 -19 -2 -12 -5z"/>
<path d="M11058 5273 c6 -2 18 -2 25 0 6 3 1 5 -13 5 -14 0 -19 -2 -12 -5z"/>
<path d="M10998 5263 c7 -3 16 -2 19 1 4 3 -2 6 -13 5 -11 0 -14 -3 -6 -6z"/>
<path d="M10938 5253 c7 -3 16 -2 19 1 4 3 -2 6 -13 5 -11 0 -14 -3 -6 -6z"/>
<path d="M10878 5243 c7 -3 16 -2 19 1 4 3 -2 6 -13 5 -11 0 -14 -3 -6 -6z"/>
<path d="M10818 5233 c7 -3 16 -2 19 1 4 3 -2 6 -13 5 -11 0 -14 -3 -6 -6z"/>
<path d="M10748 5223 c7 -3 16 -2 19 1 4 3 -2 6 -13 5 -11 0 -14 -3 -6 -6z"/>
<path d="M10688 5213 c7 -3 16 -2 19 1 4 3 -2 6 -13 5 -11 0 -14 -3 -6 -6z"/>
<path d="M10628 5203 c7 -3 16 -2 19 1 4 3 -2 6 -13 5 -11 0 -14 -3 -6 -6z"/>
<path d="M10568 5193 c7 -3 16 -2 19 1 4 3 -2 6 -13 5 -11 0 -14 -3 -6 -6z"/>
<path d="M10508 5183 c7 -3 16 -2 19 1 4 3 -2 6 -13 5 -11 0 -14 -3 -6 -6z"/>
<path d="M12501 5114 c0 -11 3 -14 6 -6 3 7 2 16 -1 19 -3 4 -6 -2 -5 -13z"/>
<path d="M10068 5113 c7 -3 16 -2 19 1 4 3 -2 6 -13 5 -11 0 -14 -3 -6 -6z"/>
<path d="M9611 5044 c0 -11 3 -14 6 -6 3 7 2 16 -1 19 -3 4 -6 -2 -5 -13z"/>
<path d="M10048 5053 c7 -3 16 -2 19 1 4 3 -2 6 -13 5 -11 0 -14 -3 -6 -6z"/>
</g>
</svg>
